# xmcd
#
# Track frame offsets: 
#        150
#        12413
#        31048
#        47150
#        73975
#        79780
#        97443
#        119393
#        144790
#        167315
#        180158
#        203578
#
# Disc length: 2988 seconds
#
# Revision: 1
# Processed by: cddbd v1.5.2PL0 Copyright (c) Steve Scherf et al.
# Submitted via: ExactAudioCopy v1.0b6
#
DISCID=960baa0c
DTITLE=Soundtrack - of Ron Howard Films 1977 - 1996 - Passions and Ach
DTITLE=ievments  
DYEAR=1900
DGENRE=Soundtrack
TTITLE0=Peter Ivers - Main Theme - Grand Theft Auto (1977)
TTITLE1=Burt Bacharach - That's What Friends Are For: Night Shift (Lov
TTITLE1=e Theme I.) (1982)
TTITLE2=Lee Holdridge - Love Theme (Splash) (1984)
TTITLE3=James Horner - The Ascension (Cocoon) (1985)
TTITLE4=Thomas Newman - Bucket Of Ice (Gung Ho) (1986)
TTITLE5=James Horner - Willow's Theme (Willow) (1988)
TTITLE6=Randy Newman - Karen and Gil - Montage (Parenthood) (1989)
TTITLE7=Jan Hammer - Show Me Your Firetruck (Backdraft) (1991)
TTITLE8=John Williams - The Land Race (Far And Away) (1992)
TTITLE9=Randy Newman - The Newsroom 7:00 P.M. (1994)
TTITLE10=James Horner - The Dark Side Of The Moon (Apollo 13) (1995)
TTITLE11=James Horner - The Kidnapping (Ransom) (1996)
EXTD=This disc spans the last twenty years of Ron Howard's phenomenal 
EXTD=directing career
EXTT0=
EXTT1=
EXTT2=
EXTT3=
EXTT4=
EXTT5=This was Ron Howard's first collaboration with Steven Spielberg 
EXTT5=and George Lucas as producers.
EXTT6=
EXTT7=
EXTT8=
EXTT9=
EXTT10=
EXTT11=
PLAYORDER=
